<svg id="Layer_1" data-name="Layer 1" xmlns="http://www.w3.org/2000/svg" viewBox="0 0 1087.63 58.02"><defs><style>.cls-1{fill:#fff;}.cls-2{fill:#c2533d;}.cls-3{fill:#faa546;}</style></defs><path class="cls-1" d="M78.24,238.21c2.29,0,3.9-.52,4.86-1.57s1.44-2.78,1.44-5.18-.43-4-1.27-5-2.38-1.58-4.6-1.58h-3v13.37ZM67.7,219.35H78.29c4.64,0,8.11.88,10.38,2.63s3.42,4.78,3.42,9.05a16.33,16.33,0,0,1-1.22,6.82,7.46,7.46,0,0,1-4.2,3.83l6.13,21.69h-8L79.49,243.2H75.68v20.17h-8Z" transform="translate(55.59 -211.72)"/><path class="cls-1" d="M117.44,260.13q-2.84-3.84-2.84-10.84V233.58q0-7.23,2.83-11t9.73-3.76q6.47,0,9.18,3.26c1.81,2.16,2.72,5.31,2.72,9.39v3.71h-7.71v-3.82a23.29,23.29,0,0,0-.22-3.66,3.67,3.67,0,0,0-1.11-2.17,4.08,4.08,0,0,0-2.81-.84,4.23,4.23,0,0,0-2.93.89A4.31,4.31,0,0,0,123,228a20.34,20.34,0,0,0-.31,3.89V251a11,11,0,0,0,1,5.4,4.61,4.61,0,0,0,6.26.79,4,4,0,0,0,1.15-2.31,24.06,24.06,0,0,0,.25-3.83v-4h7.71v3.53c0,4.24-.9,7.53-2.67,9.86s-4.85,3.5-9.23,3.5c-4.58,0-7.8-1.23-9.72-3.79" transform="translate(55.59 -211.72)"/><path class="cls-1" d="M186.28,238.16c2.17,0,3.65-.47,4.4-1.38s1.15-2.58,1.15-5a16.15,16.15,0,0,0-.38-4,3.36,3.36,0,0,0-1.55-2.09,7.26,7.26,0,0,0-3.62-.7h-3.09v13.15h3.09Zm-11.09-18.81h12.93q11.25,0,11.26,12.51,0,11.94-11.79,11.95h-4.4v19.56h-8v-44Z" transform="translate(55.59 -211.72)"/><path class="cls-1" d="M220.51,256.35a10.41,10.41,0,0,0,.93-4.88V231.2a10.37,10.37,0,0,0-.89-4.84c-.59-1.09-1.81-1.62-3.62-1.62s-3,.55-3.65,1.66a10.12,10.12,0,0,0-.93,4.81v20.28a10.25,10.25,0,0,0,.93,4.88c.61,1.13,1.83,1.68,3.65,1.68s3-.57,3.58-1.7m-13.36,3.94q-2.94-3.68-2.94-10.74V233c0-4.67,1-8.21,2.94-10.59s5.22-3.58,9.78-3.58,7.77,1.2,9.74,3.58,2.93,5.92,2.93,10.59v16.51c0,4.67-1,8.25-3,10.71s-5.21,3.7-9.7,3.7-7.82-1.22-9.78-3.67" transform="translate(55.59 -211.72)"/><path class="cls-1" d="M278.76,260.6c-2-2.24-3.06-5.61-3.24-10.06l6.9-1.36a15.42,15.42,0,0,0,1.33,6.39,3.9,3.9,0,0,0,3.67,2.2,3.31,3.31,0,0,0,2.73-1.11,4.7,4.7,0,0,0,.9-3,8.12,8.12,0,0,0-1.16-4.43,20.08,20.08,0,0,0-3.67-4l-5.55-4.83a15.26,15.26,0,0,1-3.83-4.68,12.86,12.86,0,0,1-1.27-6c0-3.44,1-6.12,3-8s4.79-2.86,8.33-2.86c3.82,0,6.54,1.07,8.18,3.24a15.86,15.86,0,0,1,2.85,8.73l-6.91,1.2a15.38,15.38,0,0,0-1-5.41,3.29,3.29,0,0,0-3.3-1.82A3.4,3.4,0,0,0,284,226a4.56,4.56,0,0,0-1,3,7,7,0,0,0,.84,3.56,12.52,12.52,0,0,0,2.74,3.08l5.49,4.83A21.4,21.4,0,0,1,297,246.1a13.88,13.88,0,0,1,1.74,7.07,11.34,11.34,0,0,1-1.38,5.6,10,10,0,0,1-3.88,3.83,11.58,11.58,0,0,1-5.76,1.38c-4,0-6.95-1.13-8.91-3.38" transform="translate(55.59 -211.72)"/><path class="cls-2" d="M-14.64,246.54a1.77,1.77,0,0,1-1.77,1.77,1.77,1.77,0,0,1-1.77-1.77,1.77,1.77,0,0,1,1.77-1.77,1.78,1.78,0,0,1,1.77,1.77" transform="translate(55.59 -211.72)"/><path class="cls-2" d="M-20.79,235.27A1.77,1.77,0,0,1-22.56,237a1.77,1.77,0,0,1-1.77-1.77,1.77,1.77,0,0,1,1.77-1.77,1.77,1.77,0,0,1,1.77,1.77" transform="translate(55.59 -211.72)"/><path class="cls-2" d="M-22.84,218.1a1.77,1.77,0,0,1-1.77,1.77,1.77,1.77,0,0,1-1.77-1.77,1.77,1.77,0,0,1,1.77-1.77,1.78,1.78,0,0,1,1.77,1.77" transform="translate(55.59 -211.72)"/><path class="cls-2" d="M-30.63,238.73a3.84,3.84,0,0,1-3.84,3.84,3.84,3.84,0,0,1-3.84-3.84,3.84,3.84,0,0,1,3.84-3.84,3.84,3.84,0,0,1,3.84,3.84" transform="translate(55.59 -211.72)"/><path class="cls-2" d="M-18.84,266a3.72,3.72,0,0,1-3.72,3.72A3.71,3.71,0,0,1-26.28,266a3.71,3.71,0,0,1,3.72-3.71A3.7,3.7,0,0,1-18.84,266" transform="translate(55.59 -211.72)"/><path class="cls-2" d="M-32.7,231.2A1.77,1.77,0,0,1-34.47,233a1.77,1.77,0,0,1-1.77-1.77,1.77,1.77,0,0,1,1.77-1.77,1.77,1.77,0,0,1,1.77,1.77" transform="translate(55.59 -211.72)"/><path class="cls-2" d="M-13.49,229a1.77,1.77,0,0,1-1.77,1.77A1.77,1.77,0,0,1-17,229a1.77,1.77,0,0,1,1.77-1.77A1.78,1.78,0,0,1-13.49,229" transform="translate(55.59 -211.72)"/><path class="cls-2" d="M-14.9,219.39a1.77,1.77,0,0,1-1.77,1.77,1.77,1.77,0,0,1-1.77-1.77,1.77,1.77,0,0,1,1.77-1.77,1.77,1.77,0,0,1,1.77,1.77" transform="translate(55.59 -211.72)"/><path class="cls-2" d="M-31.81,213.49a1.77,1.77,0,0,1-1.77,1.77,1.77,1.77,0,0,1-1.77-1.77,1.77,1.77,0,0,1,1.77-1.77,1.78,1.78,0,0,1,1.77,1.77" transform="translate(55.59 -211.72)"/><path class="cls-2" d="M-29.76,245a1.77,1.77,0,0,1-1.77,1.77A1.77,1.77,0,0,1-33.3,245a1.77,1.77,0,0,1,1.77-1.77A1.77,1.77,0,0,1-29.76,245" transform="translate(55.59 -211.72)"/><path class="cls-2" d="M-5.16,237.58a1.77,1.77,0,0,1-1.77,1.77,1.77,1.77,0,0,1-1.77-1.77,1.77,1.77,0,0,1,1.77-1.77,1.77,1.77,0,0,1,1.77,1.77" transform="translate(55.59 -211.72)"/><path class="cls-2" d="M-9.36,240.65a3.72,3.72,0,0,1-3.72,3.72,3.71,3.71,0,0,1-3.72-3.72,3.71,3.71,0,0,1,3.72-3.71,3.71,3.71,0,0,1,3.72,3.71" transform="translate(55.59 -211.72)"/><path class="cls-2" d="M-43.13,228.07a1.77,1.77,0,0,1-1.77,1.77,1.77,1.77,0,0,1-1.77-1.77,1.77,1.77,0,0,1,1.77-1.77,1.77,1.77,0,0,1,1.77,1.77" transform="translate(55.59 -211.72)"/><path class="cls-2" d="M-46.15,237.58a1.77,1.77,0,0,1-1.77,1.77,1.77,1.77,0,0,1-1.77-1.77,1.77,1.77,0,0,1,1.77-1.77,1.77,1.77,0,0,1,1.77,1.77" transform="translate(55.59 -211.72)"/><path class="cls-2" d="M-50.25,227.87A1.77,1.77,0,0,1-52,229.64a1.77,1.77,0,0,1-1.77-1.77A1.77,1.77,0,0,1-52,226.1a1.77,1.77,0,0,1,1.77,1.77" transform="translate(55.59 -211.72)"/><path class="cls-2" d="M-38.95,232.43a1.77,1.77,0,0,1-1.77,1.77,1.77,1.77,0,0,1-1.77-1.77,1.77,1.77,0,0,1,1.77-1.77,1.77,1.77,0,0,1,1.77,1.77" transform="translate(55.59 -211.72)"/><path class="cls-2" d="M-24.38,230.66a1.77,1.77,0,0,1-1.77,1.77,1.77,1.77,0,0,1-1.77-1.77,1.77,1.77,0,0,1,1.77-1.77,1.77,1.77,0,0,1,1.77,1.77" transform="translate(55.59 -211.72)"/><path class="cls-2" d="M-15.28,234.37A1.77,1.77,0,0,1-17,236.14a1.77,1.77,0,0,1-1.77-1.77A1.77,1.77,0,0,1-17,232.6a1.78,1.78,0,0,1,1.77,1.77" transform="translate(55.59 -211.72)"/><path class="cls-2" d="M-24.76,238.73a1.77,1.77,0,0,1-1.77,1.77,1.77,1.77,0,0,1-1.77-1.77A1.77,1.77,0,0,1-26.53,237a1.77,1.77,0,0,1,1.77,1.77" transform="translate(55.59 -211.72)"/><path class="cls-2" d="M-3.75,232.32a1.77,1.77,0,0,1-1.77,1.77,1.77,1.77,0,0,1-1.77-1.77,1.77,1.77,0,0,1,1.77-1.77,1.78,1.78,0,0,1,1.77,1.77" transform="translate(55.59 -211.72)"/><path class="cls-2" d="M-32.83,225.28a1.77,1.77,0,0,1-1.77,1.77,1.77,1.77,0,0,1-1.77-1.77,1.77,1.77,0,0,1,1.77-1.77,1.77,1.77,0,0,1,1.77,1.77" transform="translate(55.59 -211.72)"/><path class="cls-2" d="M-29.24,218.1A1.77,1.77,0,0,1-31,219.87a1.77,1.77,0,0,1-1.77-1.77A1.77,1.77,0,0,1-31,216.33a1.78,1.78,0,0,1,1.77,1.77" transform="translate(55.59 -211.72)"/><path class="cls-2" d="M-14.9,260.64a1.77,1.77,0,0,1-1.77,1.77,1.77,1.77,0,0,1-1.77-1.77,1.77,1.77,0,0,1,1.77-1.77,1.77,1.77,0,0,1,1.77,1.77" transform="translate(55.59 -211.72)"/><path class="cls-2" d="M-28.22,258.07A1.77,1.77,0,0,1-30,259.84a1.77,1.77,0,0,1-1.77-1.77A1.77,1.77,0,0,1-30,256.3a1.78,1.78,0,0,1,1.77,1.77" transform="translate(55.59 -211.72)"/><path class="cls-2" d="M-21.81,248.34a1.77,1.77,0,0,1-1.77,1.77,1.77,1.77,0,0,1-1.77-1.77,1.77,1.77,0,0,1,1.77-1.77,1.77,1.77,0,0,1,1.77,1.77" transform="translate(55.59 -211.72)"/><path class="cls-2" d="M-38.31,221.18A3.72,3.72,0,0,1-42,224.9a3.71,3.71,0,0,1-3.72-3.72A3.71,3.71,0,0,1-42,217.47a3.71,3.71,0,0,1,3.72,3.71" transform="translate(55.59 -211.72)"/><path class="cls-3" d="M-26,251.41a3.72,3.72,0,0,1-3.72,3.72,3.71,3.71,0,0,1-3.72-3.72,3.71,3.71,0,0,1,3.72-3.71A3.71,3.71,0,0,1-26,251.41" transform="translate(55.59 -211.72)"/><path class="cls-3" d="M-17.56,224a3.72,3.72,0,0,1-3.72,3.72A3.71,3.71,0,0,1-25,224a3.71,3.71,0,0,1,3.72-3.71A3.71,3.71,0,0,1-17.56,224" transform="translate(55.59 -211.72)"/><path class="cls-3" d="M-14.74,253.46a3.72,3.72,0,0,1-3.72,3.72,3.71,3.71,0,0,1-3.72-3.72,3.71,3.71,0,0,1,3.72-3.71,3.71,3.71,0,0,1,3.72,3.71" transform="translate(55.59 -211.72)"/><path class="cls-3" d="M-19.51,244.24A1.77,1.77,0,0,1-21.28,246,1.77,1.77,0,0,1-23,244.24a1.77,1.77,0,0,1,1.77-1.77,1.77,1.77,0,0,1,1.77,1.77" transform="translate(55.59 -211.72)"/><path class="cls-3" d="M-11.31,250.13a1.77,1.77,0,0,1-1.77,1.77,1.77,1.77,0,0,1-1.77-1.77,1.77,1.77,0,0,1,1.77-1.77,1.77,1.77,0,0,1,1.77,1.77" transform="translate(55.59 -211.72)"/><path class="cls-3" d="M-52,233a1.77,1.77,0,0,1-1.77,1.77A1.77,1.77,0,0,1-55.59,233a1.77,1.77,0,0,1,1.77-1.77A1.78,1.78,0,0,1-52,233" transform="translate(55.59 -211.72)"/><path class="cls-3" d="M-43.85,216.31a1.77,1.77,0,0,1-1.77,1.77,1.77,1.77,0,0,1-1.77-1.77,1.77,1.77,0,0,1,1.77-1.77,1.77,1.77,0,0,1,1.77,1.77" transform="translate(55.59 -211.72)"/><path class="cls-3" d="M-40.26,237.06A1.77,1.77,0,0,1-42,238.83a1.77,1.77,0,0,1-1.77-1.77A1.77,1.77,0,0,1-42,235.29a1.78,1.78,0,0,1,1.77,1.77" transform="translate(55.59 -211.72)"/><path class="cls-3" d="M-46.67,223.71a1.77,1.77,0,0,1-1.77,1.77,1.77,1.77,0,0,1-1.77-1.77,1.77,1.77,0,0,1,1.77-1.77,1.78,1.78,0,0,1,1.77,1.77" transform="translate(55.59 -211.72)"/><path class="cls-3" d="M-28.22,227A1.77,1.77,0,0,1-30,228.81,1.77,1.77,0,0,1-31.76,227,1.77,1.77,0,0,1-30,225.27,1.78,1.78,0,0,1-28.22,227" transform="translate(55.59 -211.72)"/><path class="cls-3" d="M-18.74,230.66a1.77,1.77,0,0,1-1.77,1.77,1.77,1.77,0,0,1-1.77-1.77,1.77,1.77,0,0,1,1.77-1.77,1.77,1.77,0,0,1,1.77,1.77" transform="translate(55.59 -211.72)"/><path class="cls-3" d="M-13.1,224.25A1.77,1.77,0,0,1-14.87,226a1.77,1.77,0,0,1-1.77-1.77,1.77,1.77,0,0,1,1.77-1.77,1.78,1.78,0,0,1,1.77,1.77" transform="translate(55.59 -211.72)"/><path class="cls-3" d="M-27.84,234.22a1.77,1.77,0,0,1-1.61,1.91,1.77,1.77,0,0,1-1.91-1.61,1.77,1.77,0,0,1,1.61-1.91,1.77,1.77,0,0,1,1.91,1.61" transform="translate(55.59 -211.72)"/><path class="cls-3" d="M-46.15,232.45a1.77,1.77,0,0,1-1.77,1.77,1.77,1.77,0,0,1-1.77-1.77,1.77,1.77,0,0,1,1.77-1.77,1.78,1.78,0,0,1,1.77,1.77" transform="translate(55.59 -211.72)"/><path class="cls-3" d="M-37.19,228.1A1.77,1.77,0,0,1-39,229.87a1.77,1.77,0,0,1-1.77-1.77A1.77,1.77,0,0,1-39,226.33a1.77,1.77,0,0,1,1.77,1.77" transform="translate(55.59 -211.72)"/><path class="cls-3" d="M-27.09,222.05a1.77,1.77,0,0,1-1.77,1.77,1.77,1.77,0,0,1-1.77-1.77,1.77,1.77,0,0,1,1.77-1.77,1.77,1.77,0,0,1,1.77,1.77" transform="translate(55.59 -211.72)"/><path class="cls-3" d="M-33.85,220.15a1.77,1.77,0,0,1-1.77,1.77,1.77,1.77,0,0,1-1.77-1.77,1.77,1.77,0,0,1,1.77-1.77,1.79,1.79,0,0,1,1.77,1.77" transform="translate(55.59 -211.72)"/><path class="cls-3" d="M-9.51,233a1.77,1.77,0,0,1-1.77,1.77A1.77,1.77,0,0,1-13,233a1.77,1.77,0,0,1,1.77-1.77A1.79,1.79,0,0,1-9.51,233" transform="translate(55.59 -211.72)"/><path class="cls-3" d="M-36.67,215.54a1.77,1.77,0,0,1-1.77,1.77,1.77,1.77,0,0,1-1.77-1.77,1.77,1.77,0,0,1,1.77-1.77,1.78,1.78,0,0,1,1.77,1.77" transform="translate(55.59 -211.72)"/><path class="cls-3" d="M-20.28,259.35A1.77,1.77,0,0,1-22,261.12a1.77,1.77,0,0,1-1.77-1.77A1.77,1.77,0,0,1-22,257.58a1.78,1.78,0,0,1,1.77,1.77" transform="translate(55.59 -211.72)"/><path class="cls-3" d="M-25.14,261.66a1.77,1.77,0,0,1-1.77,1.77,1.77,1.77,0,0,1-1.77-1.77,1.77,1.77,0,0,1,1.77-1.77,1.77,1.77,0,0,1,1.77,1.77" transform="translate(55.59 -211.72)"/><path class="cls-3" d="M-23.86,256.28a1.77,1.77,0,0,1-1.77,1.77,1.77,1.77,0,0,1-1.77-1.77,1.77,1.77,0,0,1,1.77-1.77,1.77,1.77,0,0,1,1.77,1.77" transform="translate(55.59 -211.72)"/><path class="cls-3" d="M-24.63,244.24A1.77,1.77,0,0,1-26.4,246a1.77,1.77,0,0,1-1.77-1.77,1.77,1.77,0,0,1,1.77-1.77,1.77,1.77,0,0,1,1.77,1.77" transform="translate(55.59 -211.72)"/><path class="cls-3" d="M-17.71,239.63a1.77,1.77,0,0,1-1.77,1.77,1.77,1.77,0,0,1-1.77-1.77,1.77,1.77,0,0,1,1.77-1.77,1.77,1.77,0,0,1,1.77,1.77" transform="translate(55.59 -211.72)"/><path class="cls-1" d="M356.9,228.87a3,3,0,0,1,.71-2.06,2.58,2.58,0,0,1,2-.81,2.15,2.15,0,0,1,1.84.72,2.87,2.87,0,0,1,.54,1.75,2.58,2.58,0,0,1-2.78,2.82h0c-1.48,0-2.24-.81-2.24-2.42m.94,9.8-3.36-.71V236l5.86-.67h.09l.85.67v21.54l3.72.31v1.84H354v-1.84l3.76-.35V238.67Z" transform="translate(55.59 -211.72)"/><path class="cls-1" d="M373.33,256.27a3.84,3.84,0,0,0,2,1.3,9.34,9.34,0,0,0,3.22.54c3.5,0,5.24-1.3,5.24-3.85a3.47,3.47,0,0,0-1.47-2.87,23.47,23.47,0,0,0-5-2.42,12.87,12.87,0,0,1-5.05-2.95,6.47,6.47,0,0,1-1.57-4.61,5,5,0,0,1,1.12-3.23,7.59,7.59,0,0,1,3-2.1,11.33,11.33,0,0,1,4.17-.76,14.12,14.12,0,0,1,3.67.4c1,.27,2,.58,2.95.94v5.1h-2.15l-.76-3.13a2.73,2.73,0,0,0-1.52-.94,8.44,8.44,0,0,0-2.69-.4,5.5,5.5,0,0,0-3.35.94,2.89,2.89,0,0,0-1.3,2.46,4,4,0,0,0,.62,2.28,5.38,5.38,0,0,0,1.57,1.44,25.25,25.25,0,0,0,2.6,1.2l.8.36a28.21,28.21,0,0,1,3.94,1.79,7.8,7.8,0,0,1,2.51,2.2,5.42,5.42,0,0,1,1,3.36,6,6,0,0,1-2.42,5,10.49,10.49,0,0,1-6.45,1.84,16.65,16.65,0,0,1-4.21-.59,17.63,17.63,0,0,1-3.53-1.2V253h2.32Z" transform="translate(55.59 -211.72)"/><path class="cls-1" d="M410.85,259.67a1.62,1.62,0,0,1-.53-1.43v-1.66a17.07,17.07,0,0,1-3.72,2.51,9.51,9.51,0,0,1-4.3,1.08c-2.6,0-4.48-.72-5.55-2.2s-1.66-3.85-1.66-7.12V238.23l-2.55-.72V235.9l5.19-.54h0l.76.49v14.47a17.05,17.05,0,0,0,.4,4.21,3.67,3.67,0,0,0,1.43,2.23,5.1,5.1,0,0,0,3,.72,8.5,8.5,0,0,0,3.63-.81,10.73,10.73,0,0,0,3-1.92V238.18l-3.27-.71v-1.62l5.73-.53h0l1,.49v21.94h2.64l0,1.61c-.14.05-.54.14-1.26.36a7.6,7.6,0,0,1-2.33.31,2.69,2.69,0,0,1-1.61-.36" transform="translate(55.59 -211.72)"/><path class="cls-1" d="M433.11,256.81a15.46,15.46,0,0,0,3-1.84v-7.61c-3.45,0-6.09.54-7.88,1.57a4.8,4.8,0,0,0-1.43,7.57,5.11,5.11,0,0,0,3.4,1.07,6.12,6.12,0,0,0,2.87-.76m-7.21-9.45a26.15,26.15,0,0,1,10.25-2V244a10.07,10.07,0,0,0-.45-3.45,3.16,3.16,0,0,0-1.56-1.83,6.79,6.79,0,0,0-3.14-.58,11.19,11.19,0,0,0-4,.67,24.05,24.05,0,0,0-3.45,1.61l-.94-1.88a13.41,13.41,0,0,1,2-1.21,23.76,23.76,0,0,1,3.45-1.39,12.63,12.63,0,0,1,3.71-.58,10.91,10.91,0,0,1,4.62.81,5.09,5.09,0,0,1,2.46,2.64,13.06,13.06,0,0,1,.76,4.83v14.15h2.69v1.57a14.69,14.69,0,0,1-4,.63,2.29,2.29,0,0,1-1.43-.32,1.91,1.91,0,0,1-.41-1.47v-1.62a19.56,19.56,0,0,1-3.35,2.42,8.78,8.78,0,0,1-9.32-.67,6.2,6.2,0,0,1-2-5c0-2.69,1.39-4.71,4.12-6" transform="translate(55.59 -211.72)"/><path class="cls-1" d="M465.7,228.87a3,3,0,0,1,.72-2.06,2.55,2.55,0,0,1,2-.81,2.15,2.15,0,0,1,1.84.72,2.93,2.93,0,0,1,.53,1.75,2.74,2.74,0,0,1-.71,2.05,2.77,2.77,0,0,1-2.06.77h-.05c-1.48,0-2.24-.81-2.24-2.42m.94,9.8-3.35-.71V236l5.86-.67h.09l.85.67v21.54l3.72.31v1.84h-11v-1.84l3.76-.35V238.67Z" transform="translate(55.59 -211.72)"/><path class="cls-1" d="M482.18,256.27a3.89,3.89,0,0,0,2,1.3,9.36,9.36,0,0,0,3.23.54c3.49,0,5.23-1.3,5.23-3.85a3.47,3.47,0,0,0-1.47-2.87,23.59,23.59,0,0,0-5-2.42,12.84,12.84,0,0,1-5.06-2.95,6.47,6.47,0,0,1-1.57-4.61,5,5,0,0,1,1.12-3.23,7.59,7.59,0,0,1,3-2.1,11.21,11.21,0,0,1,4.17-.76,14.07,14.07,0,0,1,3.67.4c1,.27,2,.58,2.95.94v5.1h-2.1l-.76-3.13a2.77,2.77,0,0,0-1.52-.94,8.44,8.44,0,0,0-2.69-.4,5.51,5.51,0,0,0-3.36.94,2.91,2.91,0,0,0-1.3,2.46,4,4,0,0,0,.63,2.28,5.38,5.38,0,0,0,1.57,1.44,24.94,24.94,0,0,0,2.59,1.2l.81.36a28.76,28.76,0,0,1,3.94,1.79,7.8,7.8,0,0,1,2.51,2.2,5.42,5.42,0,0,1,1,3.36,6,6,0,0,1-2.41,5,10.53,10.53,0,0,1-6.45,1.84,16.6,16.6,0,0,1-4.21-.59,18.74,18.74,0,0,1-3.54-1.2V253h2.33Z" transform="translate(55.59 -211.72)"/><path class="cls-1" d="M517.11,245.44a12.47,12.47,0,0,0,.13-1.89A7.61,7.61,0,0,0,515.9,239a4.73,4.73,0,0,0-4-1.65c-3.94,0-6.05,2.68-6.41,8.06Zm-12.67,11.28c-1.8-2.28-2.69-5.28-2.69-9.09a14.41,14.41,0,0,1,1.43-6.49,10.49,10.49,0,0,1,9.58-6,7.86,7.86,0,0,1,6,2.2,9.15,9.15,0,0,1,2.28,6.31,17.73,17.73,0,0,1-.27,3.76H505.47a12.12,12.12,0,0,0,2,7.34,6.58,6.58,0,0,0,5.74,2.87,11.75,11.75,0,0,0,3.67-.63,8.57,8.57,0,0,0,2.91-1.56l.67,1.56a9.94,9.94,0,0,1-3.63,2.15,13.78,13.78,0,0,1-4.79.9,9,9,0,0,1-7.65-3.36" transform="translate(55.59 -211.72)"/><path class="cls-1" d="M543.75,256.58c-1.93-2.28-2.87-5.82-2.87-10.56V230.08l-3.22-.5v-1.83h10.52v1.83l-3.71.5v16.3c0,4.16.76,7.16,2.23,8.91a8,8,0,0,0,6.41,2.59,7.27,7.27,0,0,0,6.22-2.82c1.39-1.88,2.11-4.65,2.11-8.33V230.12l-3.59-.49v-1.84h9.54v1.84l-3.27.49V246.6q0,6.72-3.09,10.07a10.72,10.72,0,0,1-8.28,3.36c-4.08,0-7.08-1.16-9-3.45" transform="translate(55.59 -211.72)"/><path class="cls-1" d="M572.05,257.84l3.45-.27V238.63l-3.32-.72V236l5.46-.67h.09l.81.67v.67l-.09,3.27h.09c0-.05.45-.49,1.12-1.3a10.88,10.88,0,0,1,3.13-2.33,8.63,8.63,0,0,1,4.21-1.12,4.26,4.26,0,0,1,1.3.18v3.76a2.28,2.28,0,0,0-.76-.27,5.53,5.53,0,0,0-1.21-.13,10.37,10.37,0,0,0-4.16.72,15.17,15.17,0,0,0-3.18,1.79v16.3l5.73.35v1.75H572.09v-1.79Z" transform="translate(55.59 -211.72)"/><path class="cls-1" d="M600.57,238.67a10.1,10.1,0,0,0-2.55,1.88v15.9a2.53,2.53,0,0,0,1.7,1.08,11.64,11.64,0,0,0,3.13.4,7.18,7.18,0,0,0,5.91-2.73c1.48-1.84,2.24-4.48,2.24-8,0-3.13-.67-5.51-2-7.07a6.33,6.33,0,0,0-5.06-2.33,7.46,7.46,0,0,0-3.36.89m-9.72-13.47,6.27-.72h.09l.81.58v13.08A12.15,12.15,0,0,1,601.2,236a9.77,9.77,0,0,1,4.16-.85,8.79,8.79,0,0,1,4.66,1.26,9.12,9.12,0,0,1,3.45,3.85,16.43,16.43,0,0,1-.23,13.29,11.42,11.42,0,0,1-4.3,4.8,12,12,0,0,1-6.44,1.74,22.89,22.89,0,0,1-5.06-.54,6.66,6.66,0,0,1-2.91-1.07v-31.3l-3.68-.4Z" transform="translate(55.59 -211.72)"/><path class="cls-1" d="M632,256.81a15.84,15.84,0,0,0,3-1.84v-7.61c-3.45,0-6.09.54-7.88,1.57a4.48,4.48,0,0,0-2.69,4,4.44,4.44,0,0,0,1.25,3.54,5.14,5.14,0,0,0,3.41,1.07,6.23,6.23,0,0,0,2.86-.76m-7.21-9.45a26.21,26.21,0,0,1,10.26-2V244a10.33,10.33,0,0,0-.45-3.45,3.17,3.17,0,0,0-1.57-1.83,6.77,6.77,0,0,0-3.13-.58,11.25,11.25,0,0,0-4,.67,23.94,23.94,0,0,0-3.44,1.61l-.94-1.88a13.41,13.41,0,0,1,2-1.21,23.61,23.61,0,0,1,3.44-1.39,12.7,12.7,0,0,1,3.72-.58,10.86,10.86,0,0,1,4.61.81,5,5,0,0,1,2.46,2.64,12.83,12.83,0,0,1,.77,4.83v14.15h2.68v1.57a14.63,14.63,0,0,1-4,.63,2.32,2.32,0,0,1-1.44-.32,2,2,0,0,1-.4-1.47v-1.62A19.64,19.64,0,0,1,632,259a8.76,8.76,0,0,1-9.31-.67,6.2,6.2,0,0,1-2-5c0-2.69,1.35-4.71,4.12-6" transform="translate(55.59 -211.72)"/><path class="cls-1" d="M648.75,238.67l-3.31-.71V236l5.46-.67H651l.81.67v1.88l-.05,1.08a18.86,18.86,0,0,1,4.21-2.55,11.5,11.5,0,0,1,4.84-1.17,7,7,0,0,1,4.21,1.08,5.75,5.75,0,0,1,2.06,3.22,22.74,22.74,0,0,1,.58,5.82v12.18l3.22.31v1.84h-9.58v-1.84l2.87-.31V245.39a21.09,21.09,0,0,0-.36-4.25,3.82,3.82,0,0,0-1.43-2.33,5.08,5.08,0,0,0-3.09-.81,9.27,9.27,0,0,0-3.72.85,16.5,16.5,0,0,0-3.45,2v16.66l3.14.35v1.84h-9.5v-1.84l2.87-.35V238.67Z" transform="translate(55.59 -211.72)"/><path class="cls-1" d="M678.53,228.87a3,3,0,0,1,.71-2.06,2.56,2.56,0,0,1,2-.81,2.15,2.15,0,0,1,1.84.72,2.87,2.87,0,0,1,.54,1.75,2.58,2.58,0,0,1-2.78,2.82h0c-1.47,0-2.23-.81-2.23-2.42m.94,9.8-3.36-.71V236l5.86-.67h.09l.85.67v21.54l3.72.31v1.84h-11v-1.84l3.76-.35V238.67Z" transform="translate(55.59 -211.72)"/><path class="cls-1" d="M695,256.27a3.84,3.84,0,0,0,2,1.3,9.3,9.3,0,0,0,3.22.54c3.5,0,5.24-1.3,5.24-3.85a3.45,3.45,0,0,0-1.48-2.87,23.09,23.09,0,0,0-5-2.42,12.92,12.92,0,0,1-5.06-2.95,6.51,6.51,0,0,1-1.56-4.61,5,5,0,0,1,1.12-3.23,7.59,7.59,0,0,1,3-2.1,11.33,11.33,0,0,1,4.17-.76,14.12,14.12,0,0,1,3.67.4c1,.27,2,.58,2.95.94v5.1h-2.1l-.76-3.13a2.8,2.8,0,0,0-1.53-.94,8.38,8.38,0,0,0-2.68-.4,5.51,5.51,0,0,0-3.36.94,2.91,2.91,0,0,0-1.3,2.46,4,4,0,0,0,.63,2.28,5.48,5.48,0,0,0,1.56,1.44,26.29,26.29,0,0,0,2.6,1.2l.81.36a29.33,29.33,0,0,1,3.94,1.79,8,8,0,0,1,2.51,2.2,5.42,5.42,0,0,1,1,3.36,6,6,0,0,1-2.42,5,10.47,10.47,0,0,1-6.44,1.84,16.54,16.54,0,0,1-4.21-.59,18.48,18.48,0,0,1-3.54-1.2V253h2.33Z" transform="translate(55.59 -211.72)"/><path class="cls-1" d="M726,256.81a15.84,15.84,0,0,0,3.05-1.84v-7.61c-3.45,0-6.09.54-7.88,1.57a4.48,4.48,0,0,0-2.69,4,4.44,4.44,0,0,0,1.25,3.54,5.16,5.16,0,0,0,3.41,1.07,6,6,0,0,0,2.86-.76m-7.21-9.45a26.21,26.21,0,0,1,10.26-2V244a10.33,10.33,0,0,0-.45-3.45,3.17,3.17,0,0,0-1.57-1.83,6.77,6.77,0,0,0-3.13-.58,11.25,11.25,0,0,0-4,.67,23.94,23.94,0,0,0-3.44,1.61l-.94-1.88a13.41,13.41,0,0,1,2-1.21,24.08,24.08,0,0,1,3.44-1.39,12.7,12.7,0,0,1,3.72-.58,10.86,10.86,0,0,1,4.61.81,5,5,0,0,1,2.46,2.64,12.83,12.83,0,0,1,.77,4.83v14.15h2.68v1.57a14.63,14.63,0,0,1-4,.63,2.32,2.32,0,0,1-1.44-.32,2,2,0,0,1-.4-1.47v-1.62A19.64,19.64,0,0,1,726,259a8.76,8.76,0,0,1-9.31-.67,6.23,6.23,0,0,1-2.06-5,6.39,6.39,0,0,1,4.16-6" transform="translate(55.59 -211.72)"/><path class="cls-1" d="M744.08,259.09a5,5,0,0,1-1.17-3.76v-17h-3.26V236.7a13.17,13.17,0,0,0,2.5-.67,1.94,1.94,0,0,0,.94-1.34,18.58,18.58,0,0,0,.68-2.33c.26-1.12.49-2,.62-2.64h2v6.09H754v2.55h-7.61v13.93a21.63,21.63,0,0,0,.18,3.49,1.91,1.91,0,0,0,.67,1.3,3.6,3.6,0,0,0,1.79.31,15.7,15.7,0,0,0,5.11-1.07l.54,1.61a11,11,0,0,1-3.27,1.48,13,13,0,0,1-3.94.71,5.09,5.09,0,0,1-3.36-1" transform="translate(55.59 -211.72)"/><path class="cls-1" d="M761.94,228.87a3,3,0,0,1,.72-2.06,2.55,2.55,0,0,1,2-.81,2.15,2.15,0,0,1,1.84.72,2.93,2.93,0,0,1,.53,1.75,2.57,2.57,0,0,1-2.77,2.82h-.05c-1.43,0-2.24-.81-2.24-2.42m.94,9.8-3.35-.71V236l5.86-.67h.09l.85.67v21.54l3.76.31v1.84h-11v-1.84l3.76-.35V238.67Z" transform="translate(55.59 -211.72)"/><path class="cls-1" d="M790.83,255.38c1.2-1.71,1.79-4.17,1.79-7.39a15.32,15.32,0,0,0-1.66-7.61,5.59,5.59,0,0,0-5.19-3,6,6,0,0,0-5.15,2.55c-1.21,1.7-1.84,4.17-1.84,7.39a15,15,0,0,0,1.7,7.61,5.6,5.6,0,0,0,5.2,3,6.19,6.19,0,0,0,5.15-2.55M776.45,241a11.34,11.34,0,0,1,4.12-4.34,10.52,10.52,0,0,1,5.33-1.52c3.63,0,6.27,1.16,8,3.53a14.68,14.68,0,0,1,2.6,9,13.52,13.52,0,0,1-1.57,6.59,11.27,11.27,0,0,1-4.12,4.34,10.61,10.61,0,0,1-5.32,1.52c-3.59,0-6.27-1.16-8-3.54a14.7,14.7,0,0,1-2.6-9,13.65,13.65,0,0,1,1.57-6.58" transform="translate(55.59 -211.72)"/><path class="cls-1" d="M804.84,238.67l-3.31-.71V236l5.46-.67h.13l.81.67v1.88l0,1.08a18.86,18.86,0,0,1,4.21-2.55,11.5,11.5,0,0,1,4.84-1.17,7,7,0,0,1,4.21,1.08,5.7,5.7,0,0,1,2.06,3.22,22.74,22.74,0,0,1,.58,5.82v12.18l3.22.31v1.84h-9.58v-1.84l2.87-.31V245.39a21.09,21.09,0,0,0-.36-4.25,3.82,3.82,0,0,0-1.43-2.33,5.08,5.08,0,0,0-3.09-.81,9.27,9.27,0,0,0-3.72.85,16.5,16.5,0,0,0-3.45,2v16.66l3.14.35v1.84h-9.5v-1.84l2.87-.35V238.67Z" transform="translate(55.59 -211.72)"/><path class="cls-3" d="M846.53,228.87a3,3,0,0,1,.71-2.06,2.58,2.58,0,0,1,2-.81,2.15,2.15,0,0,1,1.84.72,2.87,2.87,0,0,1,.54,1.75,2.58,2.58,0,0,1-2.78,2.82h0c-1.48,0-2.24-.81-2.24-2.42m.94,9.8-3.36-.71V236l5.86-.67h.09l.85.67v21.54l3.77.31v1.84h-11v-1.84l3.76-.35V238.67Z" transform="translate(55.59 -211.72)"/><path class="cls-3" d="M862.15,238.67l-3.31-.71V236l5.46-.67h.14l.8.67v1.88l0,1.08a18.41,18.41,0,0,1,4.21-2.55,11.46,11.46,0,0,1,4.83-1.17,7,7,0,0,1,4.21,1.08,5.65,5.65,0,0,1,2.06,3.22,22.3,22.3,0,0,1,.58,5.82v12.18l3.23.31v1.84h-9.58v-1.84l2.86-.31V245.39a20.38,20.38,0,0,0-.36-4.25,3.77,3.77,0,0,0-1.43-2.33,5.08,5.08,0,0,0-3.09-.81,9.34,9.34,0,0,0-3.72.85,16.16,16.16,0,0,0-3.44,2v16.66l3.13.35v1.84H859.2v-1.84l2.86-.35V238.67Z" transform="translate(55.59 -211.72)"/><path class="cls-3" d="M936,238.41h-4.34V236.7l4.34-.8v-2.11a8.79,8.79,0,0,1,1.35-4.74,10.44,10.44,0,0,1,3.45-3.45,8.6,8.6,0,0,1,4.43-1.3,8,8,0,0,1,2.42.36v3.54a4.49,4.49,0,0,0-1.39-.54,10,10,0,0,0-2.42-.27,4.09,4.09,0,0,0-3.31,1.21,6.39,6.39,0,0,0-1,4.07v3.23h6.22v2.55h-6.22v19.12l4.88.31v1.84H932.27v-1.84l3.76-.35Z" transform="translate(55.59 -211.72)"/><path class="cls-3" d="M951.12,257.84l3.45-.27V238.63l-3.31-.72V236l5.46-.67h.09l.81.67v.67l-.09,3.27h.09c0-.05.44-.49,1.12-1.3a10.61,10.61,0,0,1,3.13-2.33,8.63,8.63,0,0,1,4.21-1.12,4.26,4.26,0,0,1,1.3.18v3.76a2.38,2.38,0,0,0-.76-.27,5.6,5.6,0,0,0-1.21-.13,10.42,10.42,0,0,0-4.17.72,15.69,15.69,0,0,0-3.18,1.79v16.3l5.74.35v1.75H951.17v-1.79Z" transform="translate(55.59 -211.72)"/><path class="cls-3" d="M974.72,228.87a3,3,0,0,1,.72-2.06,2.55,2.55,0,0,1,2-.81,2.12,2.12,0,0,1,1.83.72,2.87,2.87,0,0,1,.54,1.75,2.74,2.74,0,0,1-.71,2.05,2.77,2.77,0,0,1-2.06.77h0c-1.48,0-2.24-.81-2.24-2.42m.94,9.8L972.3,238V236l5.87-.67h.09l.85.67v21.54l3.72.31v1.84h-11v-1.84l3.76-.35V238.67Z" transform="translate(55.59 -211.72)"/><path class="cls-3" d="M988.51,241.5a10.92,10.92,0,0,1,4-4.62,11.8,11.8,0,0,1,6.54-1.7,13.81,13.81,0,0,1,3.27.4,20.31,20.31,0,0,1,2.73.9l-.18,6.13h-2.15l-.89-4.11c-.18-.86-1.39-1.3-3.68-1.3a6.28,6.28,0,0,0-5.32,2.59,11.11,11.11,0,0,0-2,7q0,5.31,2.15,8.06a6.75,6.75,0,0,0,5.6,2.73,11.35,11.35,0,0,0,3.49-.58,11.58,11.58,0,0,0,2.82-1.39l.67,1.44a10,10,0,0,1-3.45,2.15,11.78,11.78,0,0,1-4.34.89,10,10,0,0,1-5.77-1.61,9.84,9.84,0,0,1-3.63-4.39,16.26,16.26,0,0,1,.13-12.62" transform="translate(55.59 -211.72)"/><path class="cls-3" d="M1022.81,256.81a15.84,15.84,0,0,0,3-1.84v-7.61c-3.45,0-6.09.54-7.88,1.57a4.81,4.81,0,0,0-1.44,7.57,5.12,5.12,0,0,0,3.41,1.07,6.11,6.11,0,0,0,2.86-.76m-7.21-9.45a26.17,26.17,0,0,1,10.26-2V244a10.33,10.33,0,0,0-.45-3.45,3.17,3.17,0,0,0-1.57-1.83,6.77,6.77,0,0,0-3.13-.58,11.25,11.25,0,0,0-4,.67,24.05,24.05,0,0,0-3.45,1.61l-.94-1.88a14.66,14.66,0,0,1,2-1.21,24.23,24.23,0,0,1,3.45-1.39,12.7,12.7,0,0,1,3.76-.58,10.83,10.83,0,0,1,4.61.81,5.07,5.07,0,0,1,2.47,2.64,13.06,13.06,0,0,1,.76,4.83v14.15H1032v1.57a14.69,14.69,0,0,1-4,.63,2.29,2.29,0,0,1-1.43-.32,1.91,1.91,0,0,1-.41-1.47v-1.62a19.56,19.56,0,0,1-3.35,2.42,8.78,8.78,0,0,1-9.32-.67,6.23,6.23,0,0,1-2.06-5c0-2.69,1.39-4.71,4.12-6" transform="translate(55.59 -211.72)"/><path class="cls-1" d="M28.62,248.11l-3-18.49-3,18.49Zm-7.34-28.76h8.59l8.8,44H31.23l-1.74-10.16H21.84l-1.79,10.16H12.5Z" transform="translate(55.59 -211.72)"/><polygon class="cls-1" points="99.74 7.63 117.85 7.63 117.85 13.18 107.74 13.18 107.74 25.99 116 25.99 116 31.59 107.74 31.59 107.74 51.65 99.74 51.65 99.74 7.63"/><rect class="cls-1" x="155.09" y="7.63" width="7.94" height="44.02"/><path class="cls-1" d="M159.65,248.11l-3-18.49-3,18.49Zm-7.33-28.76h8.59l8.8,44h-7.44l-1.74-10.16h-7.66l-1.79,10.16h-7.55Z" transform="translate(55.59 -211.72)"/><polygon class="cls-1" points="292.19 7.63 300.19 7.63 300.19 46.16 310.89 46.16 310.89 51.65 292.19 51.65 292.19 7.63"/><rect class="cls-1" x="316.38" y="7.63" width="7.94" height="44.02"/><polygon class="cls-1" points="377.11 16.03 387.55 16.03 387.55 17.86 383.61 18.36 391.08 39.04 392.88 44.91 394.53 38.95 401.2 18.36 397.8 17.86 397.8 16.03 406.85 16.03 406.85 17.86 404.11 18.36 393.73 48.27 390.9 48.27 379.8 18.36 377.11 17.86 377.11 16.03"/><polygon class="cls-1" points="506.25 15.49 502.62 15.09 502.62 13.48 508.89 12.76 508.94 12.76 509.74 13.34 509.74 45.8 513.77 46.07 513.77 47.95 502.49 47.95 502.49 46.07 506.25 45.76 506.25 15.49"/><path class="cls-3" d="M914.59,234.06,913.38,230l-1.17,4.21-4.7,14.19h11.91Zm-2.51-6.62h3.54l10.79,30,2.77.4v1.83H918.71v-1.83l3.76-.4-2.29-6.81H906.8l-2.29,6.81,3.81.44v1.84h-9.67v-1.84l2.73-.4Z" transform="translate(55.59 -211.72)"/></svg>